<svg width="9in" height="7in" version="1.1" xmlns="http://www.w3.org/2000/svg" xmlns:xlink="http://www.w3.org/1999/xlink">
    <g transform="scale(1)">
<path fill="none" stroke="#000" stroke-width="1" d="
        M 0.000000, 0.000000
        L 0.000000, 672.000000" />
<path fill="none" stroke="#000" stroke-width="1" d="
        M 86.696639, 0.000000
        L 86.696639, 672.000000" />
<path fill="none" stroke="#000" stroke-width="1" d="
        M 137.410921, 0.000000
        L 137.410921, 672.000000" />
<path fill="none" stroke="#000" stroke-width="1" d="
        M 173.393278, 0.000000
        L 173.393278, 672.000000" />
<path fill="none" stroke="#000" stroke-width="1" d="
        M 201.303361, 0.000000
        L 201.303361, 672.000000" />
<path fill="none" stroke="#000" stroke-width="1" d="
        M 224.107560, 0.000000
        L 224.107560, 672.000000" />
<path fill="none" stroke="#000" stroke-width="1" d="
        M 243.388236, 0.000000
        L 243.388236, 672.000000" />
<path fill="none" stroke="#000" stroke-width="1" d="
        M 260.089916, 0.000000
        L 260.089916, 672.000000" />
<path fill="none" stroke="#000" stroke-width="1" d="
        M 274.821843, 0.000000
        L 274.821843, 672.000000" />
<path fill="none" stroke="#000" stroke-width="1" d="
        M 288.000000, 0.000000
        L 288.000000, 672.000000" />
<path fill="none" stroke="#000" stroke-width="1" d="
        M 374.696639, 0.000000
        L 374.696639, 672.000000" />
<path fill="none" stroke="#000" stroke-width="1" d="
        M 425.410921, 0.000000
        L 425.410921, 672.000000" />
<path fill="none" stroke="#000" stroke-width="1" d="
        M 461.393278, 0.000000
        L 461.393278, 672.000000" />
<path fill="none" stroke="#000" stroke-width="1" d="
        M 489.303361, 0.000000
        L 489.303361, 672.000000" />
<path fill="none" stroke="#000" stroke-width="1" d="
        M 512.107560, 0.000000
        L 512.107560, 672.000000" />
<path fill="none" stroke="#000" stroke-width="1" d="
        M 531.388236, 0.000000
        L 531.388236, 672.000000" />
<path fill="none" stroke="#000" stroke-width="1" d="
        M 548.089916, 0.000000
        L 548.089916, 672.000000" />
<path fill="none" stroke="#000" stroke-width="1" d="
        M 562.821843, 0.000000
        L 562.821843, 672.000000" />
<path fill="none" stroke="#000" stroke-width="1" d="
        M 576.000000, 0.000000
        L 576.000000, 672.000000" />
<path fill="none" stroke="#000" stroke-width="1" d="
        M 662.696639, 0.000000
        L 662.696639, 672.000000" />
<path fill="none" stroke="#000" stroke-width="1" d="
        M 713.410921, 0.000000
        L 713.410921, 672.000000" />
<path fill="none" stroke="#000" stroke-width="1" d="
        M 749.393278, 0.000000
        L 749.393278, 672.000000" />
<path fill="none" stroke="#000" stroke-width="1" d="
        M 777.303361, 0.000000
        L 777.303361, 672.000000" />
<path fill="none" stroke="#000" stroke-width="1" d="
        M 800.107560, 0.000000
        L 800.107560, 672.000000" />
<path fill="none" stroke="#000" stroke-width="1" d="
        M 819.388236, 0.000000
        L 819.388236, 672.000000" />
<path fill="none" stroke="#000" stroke-width="1" d="
        M 836.089916, 0.000000
        L 836.089916, 672.000000" />
<path fill="none" stroke="#000" stroke-width="1" d="
        M 850.821843, 0.000000
        L 850.821843, 672.000000" />
<path fill="none" stroke="#000" stroke-width="1" d="
        M 0.000000, 0.000000
        L 864.000000, 0.000000" />
<path fill="none" stroke="#000" stroke-width="1" d="
        M 0.000000, 96.000000
        L 864.000000, 96.000000" />
<path fill="none" stroke="#000" stroke-width="1" d="
        M 0.000000, 192.000000
        L 864.000000, 192.000000" />
<path fill="none" stroke="#000" stroke-width="1" d="
        M 0.000000, 288.000000
        L 864.000000, 288.000000" />
<path fill="none" stroke="#000" stroke-width="1" d="
        M 0.000000, 384.000000
        L 864.000000, 384.000000" />
<path fill="none" stroke="#000" stroke-width="1" d="
        M 0.000000, 480.000000
        L 864.000000, 480.000000" />
<path fill="none" stroke="#000" stroke-width="1" d="
        M 0.000000, 576.000000
        L 864.000000, 576.000000" />
  <rect x="0.000000" y="0.000000" width="864.000000" height="672.000000"
        fill="none" stroke="#000" stroke-width="4" />
</g></svg>
